<mxfile host="app.diagrams.net" agent="Mozilla/5.0 (X11; Linux x86_64) AppleWebKit/537.36 (KHTML, like Gecko) Chrome/131.0.0.0 Safari/537.36" version="28.1.2">
  <diagram name="Страница — 1" id="lHIpNA71YD9EEB81Ue6B">
    <mxGraphModel dx="777" dy="471" grid="1" gridSize="10" guides="1" tooltips="1" connect="1" arrows="1" fold="1" page="1" pageScale="1" pageWidth="827" pageHeight="1169" math="0" shadow="0">
      <root>
        <mxCell id="0" />
        <mxCell id="1" parent="0" />
        <mxCell id="JVhbZe6pg1iud8cQLpee-1" value="" style="rounded=0;whiteSpace=wrap;html=1;fillColor=none;fontFamily=Helvetica;" parent="1" vertex="1">
          <mxGeometry x="200" y="40" width="40" height="80" as="geometry" />
        </mxCell>
        <mxCell id="JVhbZe6pg1iud8cQLpee-2" value="" style="rounded=0;whiteSpace=wrap;html=1;fillColor=none;fontFamily=Helvetica;" parent="1" vertex="1">
          <mxGeometry x="200" y="120" width="40" height="200" as="geometry" />
        </mxCell>
        <mxCell id="JVhbZe6pg1iud8cQLpee-3" value="" style="endArrow=none;html=1;rounded=0;entryX=0;entryY=1;entryDx=0;entryDy=0;fontFamily=Helvetica;" parent="1" edge="1">
          <mxGeometry width="50" height="50" relative="1" as="geometry">
            <mxPoint x="200" y="360" as="sourcePoint" />
            <mxPoint x="200" y="320" as="targetPoint" />
          </mxGeometry>
        </mxCell>
        <mxCell id="JVhbZe6pg1iud8cQLpee-4" value="" style="endArrow=none;html=1;rounded=0;entryX=0;entryY=1;entryDx=0;entryDy=0;fontFamily=Helvetica;" parent="1" edge="1">
          <mxGeometry width="50" height="50" relative="1" as="geometry">
            <mxPoint x="240" y="360" as="sourcePoint" />
            <mxPoint x="240" y="320" as="targetPoint" />
          </mxGeometry>
        </mxCell>
        <mxCell id="JVhbZe6pg1iud8cQLpee-5" value="&lt;font&gt;&lt;b&gt;U+0000&lt;/b&gt;&lt;/font&gt;" style="text;html=1;align=center;verticalAlign=middle;whiteSpace=wrap;rounded=0;fontFamily=Helvetica;" parent="1" vertex="1">
          <mxGeometry x="240" y="30" width="60" height="20" as="geometry" />
        </mxCell>
        <mxCell id="JVhbZe6pg1iud8cQLpee-6" value="&lt;font&gt;&lt;b&gt;U+007F&lt;/b&gt;&lt;/font&gt;" style="text;html=1;align=center;verticalAlign=middle;whiteSpace=wrap;rounded=0;fontFamily=Helvetica;" parent="1" vertex="1">
          <mxGeometry x="240" y="110" width="60" height="20" as="geometry" />
        </mxCell>
        <mxCell id="JVhbZe6pg1iud8cQLpee-7" value="&lt;font&gt;&lt;b&gt;U+FFFF&lt;/b&gt;&lt;/font&gt;" style="text;html=1;align=center;verticalAlign=middle;whiteSpace=wrap;rounded=0;fontFamily=Helvetica;" parent="1" vertex="1">
          <mxGeometry x="241" y="310" width="60" height="20" as="geometry" />
        </mxCell>
        <mxCell id="JVhbZe6pg1iud8cQLpee-8" value="&lt;font&gt;65536&amp;nbsp;characters&lt;/font&gt;" style="text;html=1;align=right;verticalAlign=middle;whiteSpace=wrap;rounded=0;fontFamily=Helvetica;" parent="1" vertex="1">
          <mxGeometry x="42" y="309" width="150" height="20" as="geometry" />
        </mxCell>
        <mxCell id="JVhbZe6pg1iud8cQLpee-10" value="&lt;font&gt;128 characters&lt;/font&gt;" style="text;html=1;align=right;verticalAlign=middle;whiteSpace=wrap;rounded=0;fontFamily=Helvetica;" parent="1" vertex="1">
          <mxGeometry x="82" y="109" width="110" height="20" as="geometry" />
        </mxCell>
        <mxCell id="JVhbZe6pg1iud8cQLpee-11" value="&lt;font&gt;&lt;b&gt;U+0430 = 1&#39;072 = &lt;/b&gt;&lt;span style=&quot;background-color: rgb(255, 255, 255);&quot;&gt;&lt;font face=&quot;Helvetica&quot; style=&quot;&quot;&gt;&lt;b&gt;100&#39;0011&#39;0000&lt;/b&gt;&lt;/font&gt;&lt;/span&gt;&lt;b&gt;&amp;nbsp;: cyrillic letter &#39;&lt;/b&gt;&lt;/font&gt;&lt;b style=&quot;&quot;&gt;а&#39; has 2 octets in UTF - 8&lt;/b&gt;&lt;font&gt;&lt;b&gt;&amp;nbsp;&lt;/b&gt;&lt;/font&gt;" style="text;html=1;align=left;verticalAlign=middle;whiteSpace=wrap;rounded=0;fontFamily=Helvetica;" parent="1" vertex="1">
          <mxGeometry x="257" y="270" width="433" height="20" as="geometry" />
        </mxCell>
        <mxCell id="JVhbZe6pg1iud8cQLpee-12" value="&lt;div&gt;&lt;font style=&quot;background-color: transparent; color: light-dark(rgb(0, 0, 0), rgb(255, 255, 255));&quot;&gt;characters up to U+&lt;/font&gt;&lt;font style=&quot;background-color: transparent; color: light-dark(rgb(0, 0, 0), rgb(255, 255, 255));&quot;&gt;00007F&lt;/font&gt;&lt;/div&gt;&lt;div&gt;&lt;font&gt;&lt;span style=&quot;background-color: transparent; color: light-dark(rgb(0, 0, 0), rgb(255, 255, 255));&quot;&gt;characters up to U+&lt;/span&gt;0007FF&lt;/font&gt;&lt;/div&gt;&lt;div&gt;&lt;font&gt;&lt;span style=&quot;background-color: transparent; color: light-dark(rgb(0, 0, 0), rgb(255, 255, 255));&quot;&gt;characters up to U+&lt;/span&gt;00FFFF&lt;/font&gt;&lt;/div&gt;&lt;div&gt;&lt;font style=&quot;background-color: transparent; color: light-dark(rgb(0, 0, 0), rgb(255, 255, 255));&quot;&gt;&lt;span style=&quot;background-color: transparent; color: light-dark(rgb(0, 0, 0), rgb(255, 255, 255));&quot;&gt;characters up to U+&lt;/span&gt;10FFFF&lt;/font&gt;&lt;/div&gt;" style="text;html=1;align=left;verticalAlign=middle;whiteSpace=wrap;rounded=0;fontFamily=Helvetica;" parent="1" vertex="1">
          <mxGeometry x="257" y="180" width="153" height="80" as="geometry" />
        </mxCell>
        <mxCell id="JVhbZe6pg1iud8cQLpee-16" value="&lt;font&gt;&lt;span style=&quot;color: rgb(32, 33, 34); text-align: start; background-color: rgb(255, 255, 255);&quot;&gt;&lt;font style=&quot;font-size: 12px;&quot;&gt;&amp;nbsp;max 1112064&lt;/font&gt;&lt;/span&gt;&amp;nbsp;characters&lt;/font&gt;" style="text;html=1;align=right;verticalAlign=middle;whiteSpace=wrap;rounded=0;fontFamily=Helvetica;" parent="1" vertex="1">
          <mxGeometry x="22" y="349" width="170" height="20" as="geometry" />
        </mxCell>
        <mxCell id="7rVMGAdaCvuB3OoOaOV6-1" value="&lt;div style=&quot;&quot;&gt;&lt;span style=&quot;background-color: transparent; color: light-dark(rgb(0, 0, 0), rgb(255, 255, 255));&quot;&gt;&amp;nbsp;have 1 octets - 07 bits&amp;nbsp;&lt;/span&gt;&lt;/div&gt;&lt;div style=&quot;&quot;&gt;&lt;span style=&quot;&quot;&gt;&amp;nbsp;&lt;/span&gt;have&amp;nbsp;&lt;span style=&quot;&quot;&gt;2 octets - 11 bits&amp;nbsp;&lt;/span&gt;&lt;/div&gt;&lt;div style=&quot;&quot;&gt;&lt;div&gt;&amp;nbsp;have&amp;nbsp;3 octets - 16 bits&amp;nbsp;&lt;/div&gt;&lt;div&gt;&amp;nbsp;have&amp;nbsp;4 octets - 21 bits&amp;nbsp;&lt;/div&gt;&lt;/div&gt;" style="text;html=1;align=left;verticalAlign=middle;whiteSpace=wrap;rounded=0;" parent="1" vertex="1">
          <mxGeometry x="403.5" y="180" width="140" height="80" as="geometry" />
        </mxCell>
        <mxCell id="7rVMGAdaCvuB3OoOaOV6-2" value="&lt;b style=&quot;&quot;&gt;UTF - 8 Encoding Algorithm :&lt;/b&gt;" style="text;html=1;align=left;verticalAlign=middle;whiteSpace=wrap;rounded=0;" parent="1" vertex="1">
          <mxGeometry x="257" y="150" width="433" height="20" as="geometry" />
        </mxCell>
        <mxCell id="7rVMGAdaCvuB3OoOaOV6-4" value="&lt;span style=&quot;&quot;&gt;: 0xxxxxxx&lt;/span&gt;&lt;div&gt;: 110xxxxx 10xxxxxx&lt;span style=&quot;&quot;&gt;&lt;/span&gt;&lt;/div&gt;&lt;div&gt;: 1110xxxx 10xxxxxx 10xxxxxx&lt;/div&gt;&lt;div&gt;: 11110xxx&lt;span style=&quot;background-color: initial;&quot;&gt;&amp;nbsp;10xxxxxx&lt;/span&gt;&lt;span style=&quot;background-color: initial;&quot;&gt;&amp;nbsp;10xxxxxx&lt;/span&gt;&lt;span style=&quot;background-color: initial;&quot;&gt;&amp;nbsp;10xxxxxx&lt;/span&gt;&lt;/div&gt;" style="text;html=1;align=left;verticalAlign=middle;whiteSpace=wrap;rounded=0;" parent="1" vertex="1">
          <mxGeometry x="528" y="179.75" width="230" height="80.5" as="geometry" />
        </mxCell>
      </root>
    </mxGraphModel>
  </diagram>
</mxfile>
